HIERARCHY
ROOT hip
{
	OFFSET 0.000000 0.000000 0.000000
	CHANNELS 6 Xposition Yposition Zposition Xrotation Zrotation Yrotation 
	JOINT abdomen
	{
		OFFSET 0.000000 3.422050 0.000000
		CHANNELS 3 Xrotation Zrotation Yrotation 
		JOINT chest
		{
			OFFSET 0.000000 8.486693 -0.684411
			CHANNELS 3 Xrotation Zrotation Yrotation 
			JOINT neck
			{
				OFFSET 0.000000 10.266162 -0.273764
				CHANNELS 3 Xrotation Zrotation Yrotation 
				JOINT head
				{
					OFFSET 0.000000 3.148285 0.000000
					CHANNELS 3 Xrotation Zrotation Yrotation 
					End Site
					{
						OFFSET 0.000000 3.148289 0.000000
					}
				}
			}
			JOINT lCollar
			{
				OFFSET 3.422053 6.707223 -0.821293
				CHANNELS 3 Yrotation Zrotation Xrotation 
				JOINT lShldr
				{
					OFFSET 3.285171 0.000000 0.000000
					CHANNELS 3 Zrotation Yrotation Xrotation 
					JOINT lForeArm
					{
						OFFSET 10.129278 0.000000 0.000000
						CHANNELS 3 Yrotation Zrotation Xrotation 
						JOINT lHand
						{
							OFFSET 8.486692 0.000000 0.000000
							CHANNELS 3 Zrotation Yrotation Xrotation 
							End Site
							{
								OFFSET 4.106464 0.000000 0.000000
							}
						}
					}
				}
			}
			JOINT rCollar
			{
				OFFSET -3.558935 6.707223 -0.821293
				CHANNELS 3 Yrotation Zrotation Xrotation 
				JOINT rShldr
				{
					OFFSET -3.148289 0.000000 0.000000
					CHANNELS 3 Zrotation Yrotation Xrotation 
					JOINT rForeArm
					{
						OFFSET -10.266159 0.000000 0.000000
						CHANNELS 3 Yrotation Zrotation Xrotation 
						JOINT rHand
						{
							OFFSET -8.349810 0.000000 0.000000
							CHANNELS 3 Zrotation Yrotation Xrotation 
							End Site
							{
								OFFSET -4.106464 0.000000 0.000000
							}
						}
					}
				}
			}
		}
	}
	JOINT lThigh
	{
		OFFSET 5.338403 -1.642589 1.368821
		CHANNELS 3 Xrotation Zrotation Yrotation 
		JOINT lShin
		{
			OFFSET -2.053232 -20.121670 0.000000
			CHANNELS 3 Xrotation Zrotation Yrotation 
			JOINT lFoot
			{
				OFFSET 0.000000 -19.300380 -1.231939
				CHANNELS 3 Xrotation Yrotation Zrotation 
				End Site
				{
					OFFSET 0.000000 -2.463878 4.653993
				}
			}
		}
	}
	JOINT rThigh
	{
		OFFSET -5.338403 -1.642589 1.368821
		CHANNELS 3 Xrotation Zrotation Yrotation 
		JOINT rShin
		{
			OFFSET 2.053232 -20.121670 0.000000
			CHANNELS 3 Xrotation Zrotation Yrotation 
			JOINT rFoot
			{
				OFFSET 0.000000 -19.300380 -1.231939
				CHANNELS 3 Xrotation Yrotation Zrotation 
				End Site
				{
					OFFSET 0.000000 -2.463878 4.653993
				}
			}
		}
	}
}
MOTION
Frames: 8
Frame Time: 0.049989
0.000000 5.996777 23.996880 -136.000031 0.000000 0.000000 50.847900 0.271715 -0.062507 -0.166918 2.129603 2.127426 17.998348 0.000000 0.000000 -7.723415 0.064746 -26.553625 -44.932537 -18.754904 -2.949367 -44.811138 3.926094 2.226234 -51.623207 30.009537 -58.772202 -57.013966 -0.033601 13.574495 44.530109 19.061773 -2.565442 44.760189 -3.954392 2.237520 51.499847 -29.990438 -58.825905 62.707592 -2.176442 18.812122 -98.441704 15.841128 11.432624 28.543676 2.764424 -0.291094 2.756881 -10.791052 6.072791 -98.547089 -8.752180 -4.036120 40.613327 1.364518 0.530499 13.257736 1.787666 -6.779926 
0.000000 5.996777 23.996880 -136.000031 0.000000 0.000000 50.847900 0.271715 -0.062507 0.482340 2.129523 2.127491 17.998348 0.000000 0.000000 -7.442945 0.128630 -26.103830 -44.877964 -18.100281 -3.110722 -45.188290 3.914343 2.226501 -51.888424 29.937935 -58.640331 -56.760384 -0.238658 13.940924 44.499741 18.391319 -2.749841 45.139828 -3.941355 2.237036 51.771317 -29.920109 -58.691174 62.161839 -1.849377 18.923393 -98.443710 16.154066 11.438382 28.543676 2.764424 -0.291094 2.756881 -10.791052 6.072791 -98.477821 -8.919735 -4.031494 41.063103 1.364628 0.530516 13.257736 1.787666 -6.779926 
0.000000 5.996777 23.996880 -136.000031 0.000000 0.000000 50.847900 0.271715 -0.062507 1.131933 2.129442 2.127556 17.998348 0.000000 0.000000 -7.161642 0.190383 -25.653181 -44.821648 -17.445440 -3.272234 -45.565525 3.902594 2.226846 -52.153294 29.865816 -58.508957 -56.508026 -0.445391 14.306557 44.467216 17.720568 -2.934023 45.519539 -3.928314 2.236639 52.042400 -29.849211 -58.556892 61.616508 -1.521103 19.031570 -98.445663 16.467039 11.444139 28.543676 2.764424 -0.291094 2.756881 -10.791052 6.072791 -98.408516 -9.087299 -4.027069 41.512978 1.364738 0.530533 13.257736 1.787666 -6.779926 
0.000000 5.996777 23.996880 -136.000031 0.000000 0.000000 50.847900 0.271715 -0.062507 1.781819 2.129361 2.127620 17.998348 0.000000 0.000000 -6.879529 0.249989 -25.201700 -44.763554 -16.790426 -3.433930 -45.942810 3.890846 2.227269 -52.417778 29.793156 -58.378036 -56.256935 -0.653783 14.671381 44.432541 17.049566 -3.118025 45.899311 -3.915269 2.236329 52.313126 -29.777763 -58.423096 61.071659 -1.191671 19.136658 -98.447578 16.780043 11.449895 28.543676 2.764424 -0.291094 2.756881 -10.791052 6.072791 -98.339195 -9.254876 -4.022846 41.962963 1.364848 0.530551 13.257737 1.787666 -6.779927 
0.000000 5.996777 23.996880 -136.000031 0.000000 0.000000 50.847900 0.271715 -0.062507 2.431956 2.129278 2.127683 17.998348 0.000000 0.000000 -6.596637 0.307433 -24.749428 -44.703712 -16.135290 -3.595841 -46.320122 3.879097 2.227768 -52.681900 29.719976 -58.247601 -56.007103 -0.863813 15.035390 44.395718 16.378376 -3.301887 46.279106 -3.902220 2.236104 52.583477 -29.705763 -58.289783 60.527252 -0.861130 19.238623 -98.449486 17.093079 11.455649 28.543676 2.764424 -0.291094 2.756881 -10.791052 6.072791 -98.269859 -9.422463 -4.018828 42.413029 1.364958 0.530571 13.257736 1.787666 -6.779926 
0.000000 5.996777 23.996880 -136.000031 0.000000 0.000000 50.847900 0.271715 -0.062507 3.082302 2.129194 2.127744 17.998348 0.000000 0.000000 -6.312989 0.362701 -24.296373 -44.642117 -15.480088 -3.757996 -46.697479 3.867352 2.228346 -52.945652 29.646276 -58.117664 -55.758549 -1.075465 15.398566 44.356766 15.707049 -3.485646 46.658947 -3.889168 2.235967 52.853451 -29.633217 -58.156952 59.983303 -0.529530 19.337469 -98.451363 17.406137 11.461407 28.543676 2.764424 -0.291094 2.756881 -10.791052 6.072791 -98.200478 -9.590057 -4.015013 42.863163 1.365068 0.530591 13.257736 1.787666 -6.779926 
0.000000 5.996777 23.996880 -136.000031 0.000000 0.000000 50.847900 0.271715 -0.062507 3.732816 2.129110 2.127805 17.998348 0.000000 0.000000 -6.028615 0.415777 -23.842581 -44.578773 -14.824873 -3.920424 -47.074871 3.855610 2.229001 -53.209023 29.572046 -57.988178 -55.511276 -1.288716 15.760898 44.315704 15.035647 -3.669343 47.038822 -3.876115 2.235917 53.123062 -29.560131 -58.024609 59.439819 -0.196925 19.433189 -98.453194 17.719213 11.467158 28.543676 2.764424 -0.291094 2.756881 -10.791052 6.072791 -98.131081 -9.757661 -4.011402 43.313343 1.365178 0.530611 13.257737 1.787666 -6.779927 
0.000000 5.996777 23.996880 -136.000031 0.000000 0.000000 50.847900 0.271715 -0.062507 4.383456 2.129026 2.127865 17.998348 0.000000 0.000000 -5.743542 0.466648 -23.388067 -44.513691 -14.169693 -4.083154 -47.452274 3.843871 2.229734 -53.472012 29.497303 -57.859203 -55.265327 -1.503548 16.122387 44.272530 14.364224 -3.853013 47.418697 -3.863060 2.235954 53.392273 -29.486494 -57.892746 58.896782 0.136639 19.525764 -98.455002 18.032303 11.472915 28.543676 2.764424 -0.291094 2.756881 -10.791052 6.072791 -98.061676 -9.925272 -4.007995 43.763580 1.365287 0.530633 13.257736 1.787666 -6.779926 
